<svg width="15" height="17" viewBox="0 0 15 17" fill="none" xmlns="http://www.w3.org/2000/svg">
<path d="M7.625 0.159912C8.45827 0.159912 9.22918 0.368274 9.9375 0.784912C10.6458 1.20161 11.2083 1.76411 11.625 2.47241C12.0416 3.1807 12.25 3.95163 12.25 4.78491C12.2499 5.70149 11.9999 6.54545 11.5 7.31616C11 8.06595 10.354 8.62873 9.5625 9.00366C10.6041 9.29525 11.5313 9.79529 12.3438 10.5037C13.1771 11.1911 13.823 12.0245 14.2812 13.0037C14.7604 13.9827 15 15.0349 15 16.1599H0.25C0.25 15.035 0.479273 13.9827 0.9375 13.0037C1.41659 12.0246 2.06266 11.191 2.875 10.5037C3.70822 9.79536 4.646 9.29528 5.6875 9.00366C4.89595 8.62867 4.24995 8.06606 3.75 7.31616C3.25006 6.54545 3.00006 5.70149 3 4.78491C3 3.95177 3.20848 3.1806 3.625 2.47241C4.04158 1.76425 4.60435 1.20159 5.3125 0.784912C6.02072 0.368274 6.7918 0.159974 7.625 0.159912Z" fill="#295EDB"/>
</svg>
