<svg width="16" height="17" viewBox="0 0 16 17" fill="none" xmlns="http://www.w3.org/2000/svg">
<g id="Foundations/Icons">
<path id="Vector" d="M4.88126 5.42505C4.88126 5.98755 5.01667 6.50838 5.28751 6.98755C5.57917 7.46672 5.95417 7.85213 6.41251 8.1438C6.89167 8.41463 7.41251 8.55005 7.97501 8.55005C8.53751 8.55005 9.04792 8.41463 9.50626 8.1438C9.98542 7.85213 10.3604 7.46672 10.6313 6.98755C10.9229 6.50838 11.0688 5.98755 11.0688 5.42505C11.0688 4.86255 10.9229 4.35213 10.6313 3.8938C10.3604 3.41463 9.98542 3.03963 9.50626 2.7688C9.04792 2.47713 8.53751 2.3313 7.97501 2.3313C7.41251 2.3313 6.89167 2.47713 6.41251 2.7688C5.95417 3.03963 5.57917 3.41463 5.28751 3.8938C5.01667 4.35213 4.88126 4.86255 4.88126 5.42505ZM9.91251 9.6438C10.9542 9.93547 11.8813 10.4355 12.6938 11.1438C13.5271 11.8313 14.1729 12.6646 14.6313 13.6438C15.1104 14.623 15.35 15.675 15.35 16.8H13.8188C13.8188 15.7375 13.5583 14.7584 13.0375 13.8625C12.5167 12.9667 11.8083 12.2584 10.9125 11.7375C10.0167 11.1959 9.03751 10.925 7.97501 10.925C6.91251 10.925 5.93334 11.1959 5.03751 11.7375C4.14167 12.2584 3.43334 12.9667 2.91251 13.8625C2.39167 14.7584 2.13126 15.7375 2.13126 16.8H0.600006C0.600006 15.675 0.829173 14.623 1.28751 13.6438C1.76667 12.6646 2.41251 11.8313 3.22501 11.1438C4.05834 10.4355 4.99584 9.93547 6.03751 9.6438C5.24584 9.2688 4.60001 8.7063 4.10001 7.9563C3.60001 7.18547 3.35001 6.34172 3.35001 5.42505C3.35001 4.59172 3.55834 3.82088 3.97501 3.11255C4.39167 2.40422 4.95417 1.84172 5.66251 1.42505C6.37084 1.00838 7.14167 0.800049 7.97501 0.800049C8.80834 0.800049 9.57917 1.00838 10.2875 1.42505C10.9958 1.84172 11.5583 2.40422 11.975 3.11255C12.3917 3.82088 12.6 4.59172 12.6 5.42505C12.6 6.34172 12.35 7.18547 11.85 7.9563C11.35 8.7063 10.7042 9.2688 9.91251 9.6438Z" fill="black"/>
</g>
</svg>
