<svg xmlns="http://www.w3.org/2000/svg" width="12" height="13" viewBox="0 0 12 13" fill="none">
<path d="M2.7521 0.802734C2.56561 0.802734 2.39439 0.873053 2.25987 1.00758C2.12841 1.13904 2.05809 1.31331 2.05809 1.49675C2.05809 1.68019 2.13146 1.85445 2.25987 1.98286L7.05376 6.77063L2.20484 11.6196C2.07032 11.7541 2 11.9283 2 12.1118C2 12.2952 2.07338 12.4695 2.20178 12.5979L2.20484 12.601C2.33325 12.7324 2.50752 12.8027 2.69401 12.8027C2.87745 12.8027 3.05172 12.7294 3.18318 12.601L9.01656 6.77369L3.24433 1.00758C3.11287 0.873053 2.9386 0.802734 2.7521 0.802734Z" fill="#21356E"/>
</svg>