<svg width="16" height="17" viewBox="0 0 16 17" fill="none" xmlns="http://www.w3.org/2000/svg">
<path d="M11.6875 14.1614C11.8333 14.1614 11.9479 14.1093 12.0312 14.0051C12.1354 13.901 12.1875 13.776 12.1875 13.6301C12.1875 13.4843 12.1354 13.3593 12.0312 13.2551C11.9479 13.151 11.8333 13.0989 11.6875 13.0989C11.5417 13.0989 11.4167 13.151 11.3125 13.2551C11.2083 13.3593 11.1562 13.4843 11.1562 13.6301C11.1562 13.776 11.2083 13.901 11.3125 14.0051C11.4167 14.1093 11.5417 14.1614 11.6875 14.1614ZM11.6875 11.7864C12.1875 11.7864 12.6146 11.9739 12.9688 12.3489C13.3229 12.703 13.5 13.1301 13.5 13.6301C13.5 14.1301 13.3229 14.5676 12.9688 14.9426C12.6146 15.2968 12.1875 15.4739 11.6875 15.4739C11.1875 15.4739 10.7604 15.2968 10.4062 14.9426C10.0521 14.5676 9.875 14.1301 9.875 13.6301C9.875 13.1301 10.0521 12.703 10.4062 12.3489C10.7604 11.9739 11.1875 11.7864 11.6875 11.7864ZM7.34375 14.1614C7.48958 14.1614 7.60417 14.1093 7.6875 14.0051C7.79167 13.901 7.84375 13.776 7.84375 13.6301C7.84375 13.4843 7.79167 13.3593 7.6875 13.2551C7.60417 13.151 7.48958 13.0989 7.34375 13.0989C7.19792 13.0989 7.07292 13.151 6.96875 13.2551C6.88542 13.3593 6.84375 13.4843 6.84375 13.6301C6.84375 13.776 6.88542 13.901 6.96875 14.0051C7.07292 14.1093 7.19792 14.1614 7.34375 14.1614ZM7.34375 11.7864C7.84375 11.7864 8.27083 11.9739 8.625 12.3489C8.97917 12.703 9.15625 13.1301 9.15625 13.6301C9.15625 14.1301 8.97917 14.5676 8.625 14.9426C8.27083 15.2968 7.84375 15.4739 7.34375 15.4739C6.84375 15.4739 6.41667 15.2968 6.0625 14.9426C5.70833 14.5676 5.53125 14.1301 5.53125 13.6301C5.53125 13.1301 5.70833 12.703 6.0625 12.3489C6.41667 11.9739 6.84375 11.7864 7.34375 11.7864ZM13.1562 10.2239L14.2812 5.94263H4.5L5.78125 10.2239H13.1562ZM4.09375 4.63013H16L14.125 11.5051H4.84375L2.46875 3.72388H0V2.41138H3.4375L4.09375 4.63013Z" fill="black"/>
</svg>
