<svg width="16" height="16" viewBox="0 0 16 16" fill="none" xmlns="http://www.w3.org/2000/svg">
<path d="M3.4375 15.5938C3.14583 15.3021 3 14.9688 3 14.5938C3 14.1979 3.14583 13.8646 3.4375 13.5938L9 8L3.4375 2.40625C3.14583 2.13542 3 1.8125 3 1.4375C3 1.04167 3.13542 0.708333 3.40625 0.4375C3.69792 0.145833 4.03125 0 4.40625 0C4.80208 0 5.14583 0.135417 5.4375 0.40625L12 7C12.2917 7.27083 12.4375 7.60417 12.4375 8C12.4375 8.39583 12.2917 8.72917 12 9L5.4375 15.5938C5.14583 15.8646 4.80208 16 4.40625 16C4.03125 16 3.70833 15.8646 3.4375 15.5938Z" fill="#B0B0B0"/>
</svg>
