<svg width="16" height="17" viewBox="0 0 16 17" fill="none" xmlns="http://www.w3.org/2000/svg">
<path d="M15.5442 13.7296L10.2086 8.38991L15.5442 3.05933C16.1477 2.45454 16.1486 1.46303 15.547 0.849106L15.5397 0.841792C14.9294 0.248438 13.9411 0.248896 13.3336 0.845906L8.00069 6.18381L2.67102 0.846821L2.66645 0.842707C2.05984 0.252553 1.07198 0.252553 0.464002 0.84225L0.458516 0.847735C0.160925 1.14715 -0.00181327 1.54303 1.52427e-05 1.96267C0.00184376 2.37866 0.165496 2.76859 0.45943 3.05978L5.7955 8.38991L0.461716 13.7274C0.168239 14.0126 0.000472393 14.414 0.000929522 14.8286C0.00138665 15.2418 0.168239 15.6409 0.459887 15.9248C0.756107 16.2278 1.14832 16.3947 1.56568 16.3947C1.56614 16.3947 1.56614 16.3947 1.5666 16.3947C1.98441 16.3947 2.37754 16.2265 2.67331 15.922L8.00115 10.5974L13.3313 15.9216C13.6243 16.2256 14.0156 16.3938 14.4339 16.3947C14.4352 16.3947 14.4366 16.3947 14.438 16.3947C14.8567 16.3947 15.2494 16.2274 15.5456 15.9234C15.835 15.6386 16.0005 15.2386 16 14.8254C15.9991 14.4048 15.8359 14.0144 15.5442 13.7296Z" fill="black"/>
</svg>
