<svg width="25" height="25" viewBox="0 0 25 25" fill="none" xmlns="http://www.w3.org/2000/svg">
<path d="M8.15137 7.3205C8.15137 8.16425 8.35449 8.9455 8.76074 9.66425C9.19824 10.383 9.76074 10.9611 10.4482 11.3986C11.167 11.8049 11.9482 12.008 12.792 12.008C13.6357 12.008 14.4014 11.8049 15.0889 11.3986C15.8076 10.9611 16.3701 10.383 16.7764 9.66425C17.2139 8.9455 17.4326 8.16425 17.4326 7.3205C17.4326 6.47675 17.2139 5.71112 16.7764 5.02362C16.3701 4.30487 15.8076 3.74237 15.0889 3.33612C14.4014 2.89862 13.6357 2.67987 12.792 2.67987C11.9482 2.67987 11.167 2.89862 10.4482 3.33612C9.76074 3.74237 9.19824 4.30487 8.76074 5.02362C8.35449 5.71112 8.15137 6.47675 8.15137 7.3205ZM15.6982 13.6486C17.2607 14.0861 18.6514 14.8361 19.8701 15.8986C21.1201 16.9299 22.0889 18.1799 22.7764 19.6486C23.4951 21.1174 23.8545 22.6955 23.8545 24.383H21.5576C21.5576 22.7892 21.167 21.3205 20.3857 19.9767C19.6045 18.633 18.542 17.5705 17.1982 16.7892C15.8545 15.9767 14.3857 15.5705 12.792 15.5705C11.1982 15.5705 9.72949 15.9767 8.38574 16.7892C7.04199 17.5705 5.97949 18.633 5.19824 19.9767C4.41699 21.3205 4.02637 22.7892 4.02637 24.383H1.72949C1.72949 22.6955 2.07324 21.1174 2.76074 19.6486C3.47949 18.1799 4.44824 16.9299 5.66699 15.8986C6.91699 14.8361 8.32324 14.0861 9.88574 13.6486C8.69824 13.0861 7.72949 12.2424 6.97949 11.1174C6.22949 9.96112 5.85449 8.6955 5.85449 7.3205C5.85449 6.0705 6.16699 4.91425 6.79199 3.85175C7.41699 2.78925 8.26074 1.9455 9.32324 1.3205C10.3857 0.695496 11.542 0.382996 12.792 0.382996C14.042 0.382996 15.1982 0.695496 16.2607 1.3205C17.3232 1.9455 18.167 2.78925 18.792 3.85175C19.417 4.91425 19.7295 6.0705 19.7295 7.3205C19.7295 8.6955 19.3545 9.96112 18.6045 11.1174C17.8545 12.2424 16.8857 13.0861 15.6982 13.6486Z" fill="black"/>
</svg>
