<svg width="12" height="13" viewBox="0 0 12 13" fill="none" xmlns="http://www.w3.org/2000/svg">
<path d="M12 3.67318C12 3.87402 11.9331 4.04138 11.7992 4.17527L6.0251 10.0246L0.200837 4.09996C0.0669456 3.96607 0 3.80707 0 3.62297C0 3.42214 0.0669456 3.25477 0.200837 3.12088C0.334728 2.98699 0.493724 2.92004 0.677824 2.92004C0.878661 2.92004 1.04603 2.98699 1.17992 3.12088L6.0251 8.04138L10.8201 3.17109C10.954 3.0372 11.113 2.97025 11.2971 2.97025C11.4812 2.97025 11.6402 3.0372 11.7741 3.17109C11.9247 3.30498 12 3.47235 12 3.67318Z" fill="#295EDB"/>
</svg>
