<svg width="12" height="13" viewBox="0 0 12 13" fill="none" xmlns="http://www.w3.org/2000/svg">
<path d="M12 3.4006C12 3.60144 11.9331 3.7688 11.7992 3.90269L6.0251 9.75206L0.200837 3.82738C0.0669456 3.69349 0 3.53449 0 3.35039C0 3.14955 0.0669456 2.98219 0.200837 2.8483C0.334728 2.71441 0.493724 2.64746 0.677824 2.64746C0.878661 2.64746 1.04603 2.71441 1.17992 2.8483L6.0251 7.7688L10.8201 2.89851C10.954 2.76462 11.113 2.69767 11.2971 2.69767C11.4812 2.69767 11.6402 2.76462 11.7741 2.89851C11.9247 3.0324 12 3.19976 12 3.4006Z" fill="white"/>
</svg>
