<svg width="16" height="17" viewBox="0 0 16 17" fill="none" xmlns="http://www.w3.org/2000/svg">
<g id="Foundations/Icons">
<path id="Vector" d="M7.84072 16.938C7.70326 16.938 7.56579 16.8999 7.44551 16.8202C5.00552 15.2192 3.11538 13.4624 1.82665 11.6015C0.67195 9.92783 0.0396139 8.19868 0.00181114 6.59775C-0.0188085 5.69679 0.142712 4.86168 0.48981 4.11319C0.833471 3.36817 1.33865 2.75136 1.98817 2.28009C2.79921 1.691 3.6618 1.41378 4.55532 1.45883C5.25983 1.49348 5.96777 1.72565 6.65853 2.15187C7.17402 2.46721 7.6036 2.84492 7.91976 3.16372C8.17751 2.88996 8.52117 2.58156 8.94387 2.31474C9.92331 1.68753 11.5213 1.14349 13.573 2.10336C13.5936 2.11375 13.6142 2.12415 13.6314 2.13455C15.1263 3.01125 15.9683 4.47357 15.9992 6.25123C16.0267 7.89721 15.3669 9.71645 14.085 11.5184C12.7345 13.4138 10.7103 15.2469 8.22219 16.8271C8.10878 16.8999 7.97475 16.938 7.84072 16.938ZM4.37662 2.90729C3.85082 2.90729 3.33876 3.09095 2.83014 3.45826C1.90913 4.13051 1.41426 5.23245 1.44862 6.5631C1.47955 7.87642 2.02254 9.33181 3.01572 10.7699C4.12574 12.3777 5.75126 13.9163 7.84759 15.344C9.99891 13.9232 11.7447 12.3154 12.9166 10.6694C14.0163 9.12736 14.5834 7.6096 14.5593 6.27895C14.5387 5.02454 13.9751 4.03349 12.9372 3.41321C11.7928 2.8865 10.724 2.92115 9.75835 3.52063C8.98855 3.99884 8.55897 4.67109 8.55554 4.67802C8.42838 4.88247 8.20844 5.01068 7.97131 5.02108C7.73075 5.03147 7.50393 4.91712 7.36303 4.72307C7.34929 4.70574 6.76163 3.9122 5.88185 3.37856C5.36292 3.06323 4.86462 2.90729 4.37662 2.90729Z" fill="black"/>
</g>
</svg>
