<svg width="17" height="17" viewBox="0 0 17 17" fill="none" xmlns="http://www.w3.org/2000/svg">
<path d="M8.25 15.3638C8.14583 15.3638 8.05208 15.3429 7.96875 15.3013C7.38542 15.0304 6.65625 14.5409 5.78125 13.8325C4.90625 13.1242 4.08333 12.3325 3.3125 11.4575C2.16667 10.1659 1.34375 8.95752 0.84375 7.83252C0.447917 6.97835 0.25 6.18669 0.25 5.45752C0.25 4.43669 0.427083 3.52002 0.78125 2.70752C1.15625 1.89502 1.67708 1.2596 2.34375 0.80127C3.01042 0.342936 3.76042 0.11377 4.59375 0.11377C5.28125 0.11377 5.94792 0.280436 6.59375 0.61377C7.23958 0.92627 7.79167 1.37419 8.25 1.95752C8.70833 1.37419 9.26042 0.92627 9.90625 0.61377C10.5521 0.280436 11.2188 0.11377 11.9062 0.11377C12.7396 0.11377 13.4896 0.342936 14.1562 0.80127C14.8229 1.2596 15.3333 1.89502 15.6875 2.70752C16.0625 3.52002 16.25 4.43669 16.25 5.45752C16.25 6.18669 16.0521 6.97835 15.6562 7.83252C15.1562 8.95752 14.3333 10.1659 13.1875 11.4575C12.4167 12.3325 11.5938 13.1242 10.7188 13.8325C9.84375 14.5409 9.11458 15.0304 8.53125 15.3013C8.44792 15.3429 8.35417 15.3638 8.25 15.3638Z" fill="#295EDB"/>
</svg>
