<svg width="12" height="13" viewBox="0 0 12 13" fill="none" xmlns="http://www.w3.org/2000/svg">
<path d="M8.25781 12.1401C8.07031 12.1401 7.90625 12.0698 7.76562 11.9292L2 6.16357L7.83594 0.351074C7.97656 0.210449 8.14062 0.140137 8.32812 0.140137C8.51562 0.140137 8.67969 0.210449 8.82031 0.351074C8.94531 0.476074 9.00781 0.640137 9.00781 0.843262C9.00781 1.03076 8.94531 1.18701 8.82031 1.31201L3.96875 6.16357L8.75 10.9683C8.89062 11.0933 8.96094 11.2573 8.96094 11.4604C8.96094 11.6479 8.89062 11.812 8.75 11.9526C8.625 12.0776 8.46094 12.1401 8.25781 12.1401ZM8.25781 12.1401C8.07031 12.1401 7.90625 12.0698 7.76562 11.9292L2 6.16357L7.83594 0.351074C7.97656 0.210449 8.14062 0.140137 8.32812 0.140137C8.51562 0.140137 8.67969 0.210449 8.82031 0.351074C8.94531 0.476074 9.00781 0.640137 9.00781 0.843262C9.00781 1.03076 8.94531 1.18701 8.82031 1.31201L3.96875 6.16357L8.75 10.9683C8.89062 11.0933 8.96094 11.2573 8.96094 11.4604C8.96094 11.6479 8.89062 11.812 8.75 11.9526C8.625 12.0776 8.46094 12.1401 8.25781 12.1401Z" fill="white"/>
</svg>
