<svg width="12" height="13" viewBox="0 0 12 13" fill="none" xmlns="http://www.w3.org/2000/svg">
<path d="M8.25781 12.6001C8.07031 12.6001 7.90625 12.5298 7.76562 12.3892L2 6.62354L7.83594 0.811035C7.97656 0.67041 8.14062 0.600098 8.32812 0.600098C8.51562 0.600098 8.67969 0.67041 8.82031 0.811035C8.94531 0.936035 9.00781 1.1001 9.00781 1.30322C9.00781 1.49072 8.94531 1.64697 8.82031 1.77197L3.96875 6.62354L8.75 11.4282C8.89062 11.5532 8.96094 11.7173 8.96094 11.9204C8.96094 12.1079 8.89062 12.272 8.75 12.4126C8.625 12.5376 8.46094 12.6001 8.25781 12.6001ZM8.25781 12.6001C8.07031 12.6001 7.90625 12.5298 7.76562 12.3892L2 6.62354L7.83594 0.811035C7.97656 0.67041 8.14062 0.600098 8.32812 0.600098C8.51562 0.600098 8.67969 0.67041 8.82031 0.811035C8.94531 0.936035 9.00781 1.1001 9.00781 1.30322C9.00781 1.49072 8.94531 1.64697 8.82031 1.77197L3.96875 6.62354L8.75 11.4282C8.89062 11.5532 8.96094 11.7173 8.96094 11.9204C8.96094 12.1079 8.89062 12.272 8.75 12.4126C8.625 12.5376 8.46094 12.6001 8.25781 12.6001Z" fill="#295EDB"/>
</svg>
