<svg width="12" height="14" viewBox="0 0 12 14" fill="none" xmlns="http://www.w3.org/2000/svg">
<path d="M2.7521 0.942871C2.56561 0.942871 2.39439 1.01319 2.25987 1.14771C2.12841 1.27918 2.05809 1.45344 2.05809 1.63688C2.05809 1.82032 2.13146 1.99459 2.25987 2.123L7.05376 6.91077L2.20484 11.7597C2.07032 11.8942 2 12.0685 2 12.2519C2 12.4354 2.07338 12.6096 2.20178 12.738L2.20484 12.7411C2.33325 12.8726 2.50752 12.9429 2.69401 12.9429C2.87745 12.9429 3.05172 12.8695 3.18318 12.7411L9.01656 6.91383L3.24433 1.14771C3.11287 1.01319 2.9386 0.942871 2.7521 0.942871Z" fill="white"/>
</svg>
