<svg width="12" height="13" viewBox="0 0 12 13" fill="none" xmlns="http://www.w3.org/2000/svg">
<path d="M2.7521 0.402832C2.56561 0.402832 2.39439 0.473151 2.25987 0.607673C2.12841 0.739138 2.05809 0.913405 2.05809 1.09684C2.05809 1.28028 2.13146 1.45455 2.25987 1.58296L7.05376 6.37073L2.20484 11.2196C2.07032 11.3542 2 11.5284 2 11.7119C2 11.8953 2.07338 12.0696 2.20178 12.198L2.20484 12.201C2.33325 12.3325 2.50752 12.4028 2.69401 12.4028C2.87745 12.4028 3.05172 12.3295 3.18318 12.201L9.01656 6.37379L3.24433 0.607673C3.11287 0.473151 2.9386 0.402832 2.7521 0.402832Z" fill="#295EDB"/>
</svg>
